<?xml version="1.0" encoding="UTF-8"?>
<!DOCTYPE svg PUBLIC "-//W3C//DTD SVG 1.1//EN" "http://www.w3.org/Graphics/SVG/1.1/DTD/svg11.dtd">
<svg version="1.2" width="52.4mm" height="44.7mm" viewBox="0 0 5240 4470" preserveAspectRatio="xMidYMid" fill-rule="evenodd" stroke-width="28.222" stroke-linejoin="round" xmlns="http://www.w3.org/2000/svg" xmlns:ooo="http://xml.openoffice.org/svg/export" xmlns:xlink="http://www.w3.org/1999/xlink" xmlns:presentation="http://sun.com/xmlns/staroffice/presentation" xmlns:smil="http://www.w3.org/2001/SMIL20/" xmlns:anim="urn:oasis:names:tc:opendocument:xmlns:animation:1.0" xml:space="preserve">
 <defs class="ClipPathGroup">
  <clipPath id="presentation_clip_path" clipPathUnits="userSpaceOnUse">
   <rect x="0" y="0" width="5240" height="4470"/>
  </clipPath>
 </defs>
 <defs class="TextShapeIndex">
  <g ooo:slide="id1" ooo:id-list="id3 id4 id5"/>
 </defs>
 <defs class="EmbeddedBulletChars">
  <g id="bullet-char-template(57356)" transform="scale(0.00048828125,-0.00048828125)">
   <path d="M 580,1141 L 1163,571 580,0 -4,571 580,1141 Z"/>
  </g>
  <g id="bullet-char-template(57354)" transform="scale(0.00048828125,-0.00048828125)">
   <path d="M 8,1128 L 1137,1128 1137,0 8,0 8,1128 Z"/>
  </g>
  <g id="bullet-char-template(10146)" transform="scale(0.00048828125,-0.00048828125)">
   <path d="M 174,0 L 602,739 174,1481 1456,739 174,0 Z M 1358,739 L 309,1346 659,739 1358,739 Z"/>
  </g>
  <g id="bullet-char-template(10132)" transform="scale(0.00048828125,-0.00048828125)">
   <path d="M 2015,739 L 1276,0 717,0 1260,543 174,543 174,936 1260,936 717,1481 1274,1481 2015,739 Z"/>
  </g>
  <g id="bullet-char-template(10007)" transform="scale(0.00048828125,-0.00048828125)">
   <path d="M 0,-2 C -7,14 -16,27 -25,37 L 356,567 C 262,823 215,952 215,954 215,979 228,992 255,992 264,992 276,990 289,987 310,991 331,999 354,1012 L 381,999 492,748 772,1049 836,1024 860,1049 C 881,1039 901,1025 922,1006 886,937 835,863 770,784 769,783 710,716 594,584 L 774,223 C 774,196 753,168 711,139 L 727,119 C 717,90 699,76 672,76 641,76 570,178 457,381 L 164,-76 C 142,-110 111,-127 72,-127 30,-127 9,-110 8,-76 1,-67 -2,-52 -2,-32 -2,-23 -1,-13 0,-2 Z"/>
  </g>
  <g id="bullet-char-template(10004)" transform="scale(0.00048828125,-0.00048828125)">
   <path d="M 285,-33 C 182,-33 111,30 74,156 52,228 41,333 41,471 41,549 55,616 82,672 116,743 169,778 240,778 293,778 328,747 346,684 L 369,508 C 377,444 397,411 428,410 L 1163,1116 C 1174,1127 1196,1133 1229,1133 1271,1133 1292,1118 1292,1087 L 1292,965 C 1292,929 1282,901 1262,881 L 442,47 C 390,-6 338,-33 285,-33 Z"/>
  </g>
  <g id="bullet-char-template(9679)" transform="scale(0.00048828125,-0.00048828125)">
   <path d="M 813,0 C 632,0 489,54 383,161 276,268 223,411 223,592 223,773 276,916 383,1023 489,1130 632,1184 813,1184 992,1184 1136,1130 1245,1023 1353,916 1407,772 1407,592 1407,412 1353,268 1245,161 1136,54 992,0 813,0 Z"/>
  </g>
  <g id="bullet-char-template(8226)" transform="scale(0.00048828125,-0.00048828125)">
   <path d="M 346,457 C 273,457 209,483 155,535 101,586 74,649 74,723 74,796 101,859 155,911 209,963 273,989 346,989 419,989 480,963 531,910 582,859 608,796 608,723 608,648 583,586 532,535 482,483 420,457 346,457 Z"/>
  </g>
  <g id="bullet-char-template(8211)" transform="scale(0.00048828125,-0.00048828125)">
   <path d="M -4,459 L 1135,459 1135,606 -4,606 -4,459 Z"/>
  </g>
 </defs>
 <defs class="TextEmbeddedBitmaps"/>
 <g>
  <g id="id2" class="Master_Slide">
   <g id="bg-id2" class="Background"/>
   <g id="bo-id2" class="BackgroundObjects"/>
  </g>
 </g>
 <g class="SlideGroup">
  <g>
   <g id="id1" class="Slide" clip-path="url(#presentation_clip_path)">
    <g class="Page">
     <g class="Group">
      <g class="com.sun.star.drawing.PolyLineShape">
       <g id="id3">
        <rect class="BoundingBox" stroke="none" fill="none" x="10" y="0" width="5241" height="3351"/>
        <path fill="none" stroke="rgb(150,150,150)" stroke-width="500" stroke-linejoin="round" stroke-linecap="round" d="M 260,250 L 860,250 1720,3100 4460,3100 5000,900 1200,900"/>
       </g>
      </g>
      <g class="com.sun.star.drawing.CustomShape">
       <g id="id4">
        <rect class="BoundingBox" stroke="none" fill="none" x="3599" y="3399" width="1104" height="1056"/>
        <path fill="rgb(150,150,150)" stroke="none" d="M 4150,3400 C 4462,3400 4700,3628 4700,3926 4700,4224 4462,4452 4150,4452 3838,4452 3600,4224 3600,3926 3600,3628 3838,3400 4150,3400 Z M 4149,3701 C 4281,3701 4383,3797 4383,3924 4383,4051 4281,4148 4149,4148 4017,4148 3915,4051 3915,3924 3915,3797 4017,3701 4149,3701 Z M 3600,3400 L 3600,3400 Z M 4701,4453 L 4701,4453 Z"/>
        <path fill="none" stroke="rgb(28,28,28)" d="M 4150,3400 C 4462,3400 4700,3628 4700,3926 4700,4224 4462,4452 4150,4452 3838,4452 3600,4224 3600,3926 3600,3628 3838,3400 4150,3400 Z"/>
        <path fill="none" stroke="rgb(28,28,28)" d="M 4149,3701 C 4281,3701 4383,3797 4383,3924 4383,4051 4281,4148 4149,4148 4017,4148 3915,4051 3915,3924 3915,3797 4017,3701 4149,3701 Z"/>
        <path fill="none" stroke="rgb(28,28,28)" d="M 3600,3400 L 3600,3400 Z"/>
        <path fill="none" stroke="rgb(28,28,28)" d="M 4701,4453 L 4701,4453 Z"/>
       </g>
      </g>
      <g class="com.sun.star.drawing.CustomShape">
       <g id="id5">
        <rect class="BoundingBox" stroke="none" fill="none" x="1600" y="3400" width="1104" height="1056"/>
        <path fill="rgb(150,150,150)" stroke="none" d="M 2151,3401 C 2463,3401 2701,3629 2701,3927 2701,4225 2463,4453 2151,4453 1839,4453 1601,4225 1601,3927 1601,3629 1839,3401 2151,3401 Z M 2150,3695 C 2287,3695 2392,3795 2392,3926 2392,4057 2287,4157 2150,4157 2013,4157 1908,4057 1908,3926 1908,3795 2013,3695 2150,3695 Z M 1601,3401 L 1601,3401 Z M 2702,4454 L 2702,4454 Z"/>
        <path fill="none" stroke="rgb(28,28,28)" d="M 2151,3401 C 2463,3401 2701,3629 2701,3927 2701,4225 2463,4453 2151,4453 1839,4453 1601,4225 1601,3927 1601,3629 1839,3401 2151,3401 Z"/>
        <path fill="none" stroke="rgb(28,28,28)" d="M 2150,3695 C 2287,3695 2392,3795 2392,3926 2392,4057 2287,4157 2150,4157 2013,4157 1908,4057 1908,3926 1908,3795 2013,3695 2150,3695 Z"/>
        <path fill="none" stroke="rgb(28,28,28)" d="M 1601,3401 L 1601,3401 Z"/>
        <path fill="none" stroke="rgb(28,28,28)" d="M 2702,4454 L 2702,4454 Z"/>
       </g>
      </g>
     </g>
    </g>
   </g>
  </g>
 </g>
</svg>