<?xml version="1.0" encoding="UTF-8"?>
<!DOCTYPE svg PUBLIC "-//W3C//DTD SVG 1.1//EN" "http://www.w3.org/Graphics/SVG/1.1/DTD/svg11.dtd">
<svg version="1.2" width="95mm" height="93mm" viewBox="0 0 9500 9300" preserveAspectRatio="xMidYMid" fill-rule="evenodd" stroke-width="28.222" stroke-linejoin="round" xmlns="http://www.w3.org/2000/svg" xmlns:ooo="http://xml.openoffice.org/svg/export" xmlns:xlink="http://www.w3.org/1999/xlink" xmlns:presentation="http://sun.com/xmlns/staroffice/presentation" xmlns:smil="http://www.w3.org/2001/SMIL20/" xmlns:anim="urn:oasis:names:tc:opendocument:xmlns:animation:1.0" xml:space="preserve">
 <defs class="ClipPathGroup">
  <clipPath id="presentation_clip_path" clipPathUnits="userSpaceOnUse">
   <rect x="0" y="0" width="9500" height="9300"/>
  </clipPath>
  <clipPath id="presentation_clip_path_shrink" clipPathUnits="userSpaceOnUse">
   <rect x="9" y="9" width="9481" height="9282"/>
  </clipPath>
 </defs>
 <defs class="TextShapeIndex">
  <g ooo:slide="id1" ooo:id-list="id3 id4 id5 id6 id7 id8 id9"/>
 </defs>
 <defs class="EmbeddedBulletChars">
  <g id="bullet-char-template(57356)" transform="scale(0.00048828125,-0.00048828125)">
   <path d="M 580,1141 L 1163,571 580,0 -4,571 580,1141 Z"/>
  </g>
  <g id="bullet-char-template(57354)" transform="scale(0.00048828125,-0.00048828125)">
   <path d="M 8,1128 L 1137,1128 1137,0 8,0 8,1128 Z"/>
  </g>
  <g id="bullet-char-template(10146)" transform="scale(0.00048828125,-0.00048828125)">
   <path d="M 174,0 L 602,739 174,1481 1456,739 174,0 Z M 1358,739 L 309,1346 659,739 1358,739 Z"/>
  </g>
  <g id="bullet-char-template(10132)" transform="scale(0.00048828125,-0.00048828125)">
   <path d="M 2015,739 L 1276,0 717,0 1260,543 174,543 174,936 1260,936 717,1481 1274,1481 2015,739 Z"/>
  </g>
  <g id="bullet-char-template(10007)" transform="scale(0.00048828125,-0.00048828125)">
   <path d="M 0,-2 C -7,14 -16,27 -25,37 L 356,567 C 262,823 215,952 215,954 215,979 228,992 255,992 264,992 276,990 289,987 310,991 331,999 354,1012 L 381,999 492,748 772,1049 836,1024 860,1049 C 881,1039 901,1025 922,1006 886,937 835,863 770,784 769,783 710,716 594,584 L 774,223 C 774,196 753,168 711,139 L 727,119 C 717,90 699,76 672,76 641,76 570,178 457,381 L 164,-76 C 142,-110 111,-127 72,-127 30,-127 9,-110 8,-76 1,-67 -2,-52 -2,-32 -2,-23 -1,-13 0,-2 Z"/>
  </g>
  <g id="bullet-char-template(10004)" transform="scale(0.00048828125,-0.00048828125)">
   <path d="M 285,-33 C 182,-33 111,30 74,156 52,228 41,333 41,471 41,549 55,616 82,672 116,743 169,778 240,778 293,778 328,747 346,684 L 369,508 C 377,444 397,411 428,410 L 1163,1116 C 1174,1127 1196,1133 1229,1133 1271,1133 1292,1118 1292,1087 L 1292,965 C 1292,929 1282,901 1262,881 L 442,47 C 390,-6 338,-33 285,-33 Z"/>
  </g>
  <g id="bullet-char-template(9679)" transform="scale(0.00048828125,-0.00048828125)">
   <path d="M 813,0 C 632,0 489,54 383,161 276,268 223,411 223,592 223,773 276,916 383,1023 489,1130 632,1184 813,1184 992,1184 1136,1130 1245,1023 1353,916 1407,772 1407,592 1407,412 1353,268 1245,161 1136,54 992,0 813,0 Z"/>
  </g>
  <g id="bullet-char-template(8226)" transform="scale(0.00048828125,-0.00048828125)">
   <path d="M 346,457 C 273,457 209,483 155,535 101,586 74,649 74,723 74,796 101,859 155,911 209,963 273,989 346,989 419,989 480,963 531,910 582,859 608,796 608,723 608,648 583,586 532,535 482,483 420,457 346,457 Z"/>
  </g>
  <g id="bullet-char-template(8211)" transform="scale(0.00048828125,-0.00048828125)">
   <path d="M -4,459 L 1135,459 1135,606 -4,606 -4,459 Z"/>
  </g>
  <g id="bullet-char-template(61548)" transform="scale(0.00048828125,-0.00048828125)">
   <path d="M 173,740 C 173,903 231,1043 346,1159 462,1274 601,1332 765,1332 928,1332 1067,1274 1183,1159 1299,1043 1357,903 1357,740 1357,577 1299,437 1183,322 1067,206 928,148 765,148 601,148 462,206 346,322 231,437 173,577 173,740 Z"/>
  </g>
 </defs>
 <defs class="TextEmbeddedBitmaps"/>
 <g>
  <g id="id2" class="Master_Slide">
   <g id="bg-id2" class="Background"/>
   <g id="bo-id2" class="BackgroundObjects"/>
  </g>
 </g>
 <g class="SlideGroup">
  <g>
   <g id="container-id1">
    <g id="id1" class="Slide" clip-path="url(#presentation_clip_path)">
     <g class="Page">
      <g class="Group">
       <g class="com.sun.star.drawing.CustomShape">
        <g id="id3">
         <rect class="BoundingBox" stroke="none" fill="none" x="-1" y="-1" width="9503" height="9303"/>
         <path fill="rgb(51,51,51)" stroke="none" d="M 4750,9300 L 0,9300 0,0 9500,0 9500,9300 4750,9300 Z"/>
         <path fill="none" stroke="rgb(221,221,221)" d="M 4750,9300 L 0,9300 0,0 9500,0 9500,9300 4750,9300 Z"/>
        </g>
       </g>
       <g class="com.sun.star.drawing.CustomShape">
        <g id="id4">
         <rect class="BoundingBox" stroke="none" fill="none" x="1380" y="-1" width="5703" height="2459"/>
         <path fill="rgb(221,221,221)" stroke="none" d="M 4231,2456 L 1381,2456 1381,0 7081,0 7081,2456 4231,2456 Z"/>
         <path fill="none" stroke="rgb(238,238,238)" d="M 4231,2456 L 1381,2456 1381,0 7081,0 7081,2456 4231,2456 Z"/>
        </g>
       </g>
       <g class="com.sun.star.drawing.CustomShape">
        <g id="id5">
         <rect class="BoundingBox" stroke="none" fill="none" x="1899" y="174" width="867" height="2108"/>
         <path fill="rgb(0,0,0)" stroke="none" d="M 2332,2280 L 1900,2280 1900,175 2764,175 2764,2280 2332,2280 Z"/>
         <path fill="none" stroke="rgb(221,221,221)" d="M 2332,2280 L 1900,2280 1900,175 2764,175 2764,2280 2332,2280 Z"/>
        </g>
       </g>
       <g class="com.sun.star.drawing.CustomShape">
        <g id="id6">
         <rect class="BoundingBox" stroke="none" fill="none" x="2934" y="3859" width="3113" height="2988"/>
         <path fill="rgb(221,221,221)" stroke="none" d="M 4489,3860 C 5370,3860 6044,4506 6044,5352 6044,6198 5370,6844 4489,6844 3608,6844 2935,6198 2935,5352 2935,4506 3608,3860 4489,3860 Z M 2935,3860 L 2935,3860 Z M 6045,6845 L 6045,6845 Z"/>
         <path fill="none" stroke="rgb(238,238,238)" d="M 4489,3860 C 5370,3860 6044,4506 6044,5352 6044,6198 5370,6844 4489,6844 3608,6844 2935,6198 2935,5352 2935,4506 3608,3860 4489,3860 Z"/>
         <path fill="none" stroke="rgb(238,238,238)" d="M 2935,3860 L 2935,3860 Z"/>
         <path fill="none" stroke="rgb(238,238,238)" d="M 6045,6845 L 6045,6845 Z"/>
        </g>
       </g>
       <g class="com.sun.star.drawing.CustomShape">
        <g id="id7">
         <rect class="BoundingBox" stroke="none" fill="none" x="4675" y="4201" width="669" height="545"/>
         <path fill="rgb(102,102,102)" stroke="none" d="M 4960,4545 L 4676,4346 4774,4202 5342,4600 5244,4744 4960,4545 Z"/>
         <path fill="none" stroke="rgb(221,221,221)" d="M 4960,4545 L 4676,4346 4774,4202 5342,4600 5244,4744 4960,4545 Z"/>
        </g>
       </g>
       <g class="com.sun.star.drawing.CustomShape">
        <g id="id8">
         <rect class="BoundingBox" stroke="none" fill="none" x="3970" y="4736" width="1041" height="1058"/>
         <path fill="rgb(102,102,102)" stroke="none" d="M 4489,4737 C 4783,4737 5008,4965 5008,5264 5008,5563 4783,5791 4489,5791 4195,5791 3971,5563 3971,5264 3971,4965 4195,4737 4489,4737 Z M 3971,4737 L 3971,4737 Z M 5009,5792 L 5009,5792 Z"/>
         <path fill="none" stroke="rgb(204,204,204)" d="M 4489,4737 C 4783,4737 5008,4965 5008,5264 5008,5563 4783,5791 4489,5791 4195,5791 3971,5563 3971,5264 3971,4965 4195,4737 4489,4737 Z"/>
         <path fill="none" stroke="rgb(204,204,204)" d="M 3971,4737 L 3971,4737 Z"/>
         <path fill="none" stroke="rgb(204,204,204)" d="M 5009,5792 L 5009,5792 Z"/>
        </g>
       </g>
       <g class="com.sun.star.drawing.CustomShape">
        <g id="id9">
         <rect class="BoundingBox" stroke="none" fill="none" x="8634" y="8598" width="522" height="353"/>
         <path fill="rgb(255,255,255)" stroke="none" d="M 8895,8949 L 8635,8949 8635,8599 9154,8599 9154,8949 8895,8949 Z"/>
         <path fill="none" stroke="rgb(204,204,204)" d="M 8895,8949 L 8635,8949 8635,8599 9154,8599 9154,8949 8895,8949 Z"/>
        </g>
       </g>
      </g>
     </g>
    </g>
   </g>
  </g>
 </g>
</svg>