<?xml version="1.0" encoding="UTF-8"?>
<!DOCTYPE svg PUBLIC "-//W3C//DTD SVG 1.1//EN" "http://www.w3.org/Graphics/SVG/1.1/DTD/svg11.dtd">
<svg version="1.2" width="93mm" height="77mm" viewBox="0 0 9300 7700" preserveAspectRatio="xMidYMid" fill-rule="evenodd" stroke-width="28.222" stroke-linejoin="round" xmlns="http://www.w3.org/2000/svg" xmlns:ooo="http://xml.openoffice.org/svg/export" xmlns:xlink="http://www.w3.org/1999/xlink" xmlns:presentation="http://sun.com/xmlns/staroffice/presentation" xmlns:smil="http://www.w3.org/2001/SMIL20/" xmlns:anim="urn:oasis:names:tc:opendocument:xmlns:animation:1.0" xml:space="preserve">
 <defs class="ClipPathGroup">
  <clipPath id="presentation_clip_path" clipPathUnits="userSpaceOnUse">
   <rect x="0" y="0" width="9300" height="7700"/>
  </clipPath>
 </defs>
 <defs class="TextShapeIndex">
  <g ooo:slide="id1" ooo:id-list="id3 id4"/>
 </defs>
 <defs class="EmbeddedBulletChars">
  <g id="bullet-char-template(57356)" transform="scale(0.00048828125,-0.00048828125)">
   <path d="M 580,1141 L 1163,571 580,0 -4,571 580,1141 Z"/>
  </g>
  <g id="bullet-char-template(57354)" transform="scale(0.00048828125,-0.00048828125)">
   <path d="M 8,1128 L 1137,1128 1137,0 8,0 8,1128 Z"/>
  </g>
  <g id="bullet-char-template(10146)" transform="scale(0.00048828125,-0.00048828125)">
   <path d="M 174,0 L 602,739 174,1481 1456,739 174,0 Z M 1358,739 L 309,1346 659,739 1358,739 Z"/>
  </g>
  <g id="bullet-char-template(10132)" transform="scale(0.00048828125,-0.00048828125)">
   <path d="M 2015,739 L 1276,0 717,0 1260,543 174,543 174,936 1260,936 717,1481 1274,1481 2015,739 Z"/>
  </g>
  <g id="bullet-char-template(10007)" transform="scale(0.00048828125,-0.00048828125)">
   <path d="M 0,-2 C -7,14 -16,27 -25,37 L 356,567 C 262,823 215,952 215,954 215,979 228,992 255,992 264,992 276,990 289,987 310,991 331,999 354,1012 L 381,999 492,748 772,1049 836,1024 860,1049 C 881,1039 901,1025 922,1006 886,937 835,863 770,784 769,783 710,716 594,584 L 774,223 C 774,196 753,168 711,139 L 727,119 C 717,90 699,76 672,76 641,76 570,178 457,381 L 164,-76 C 142,-110 111,-127 72,-127 30,-127 9,-110 8,-76 1,-67 -2,-52 -2,-32 -2,-23 -1,-13 0,-2 Z"/>
  </g>
  <g id="bullet-char-template(10004)" transform="scale(0.00048828125,-0.00048828125)">
   <path d="M 285,-33 C 182,-33 111,30 74,156 52,228 41,333 41,471 41,549 55,616 82,672 116,743 169,778 240,778 293,778 328,747 346,684 L 369,508 C 377,444 397,411 428,410 L 1163,1116 C 1174,1127 1196,1133 1229,1133 1271,1133 1292,1118 1292,1087 L 1292,965 C 1292,929 1282,901 1262,881 L 442,47 C 390,-6 338,-33 285,-33 Z"/>
  </g>
  <g id="bullet-char-template(9679)" transform="scale(0.00048828125,-0.00048828125)">
   <path d="M 813,0 C 632,0 489,54 383,161 276,268 223,411 223,592 223,773 276,916 383,1023 489,1130 632,1184 813,1184 992,1184 1136,1130 1245,1023 1353,916 1407,772 1407,592 1407,412 1353,268 1245,161 1136,54 992,0 813,0 Z"/>
  </g>
  <g id="bullet-char-template(8226)" transform="scale(0.00048828125,-0.00048828125)">
   <path d="M 346,457 C 273,457 209,483 155,535 101,586 74,649 74,723 74,796 101,859 155,911 209,963 273,989 346,989 419,989 480,963 531,910 582,859 608,796 608,723 608,648 583,586 532,535 482,483 420,457 346,457 Z"/>
  </g>
  <g id="bullet-char-template(8211)" transform="scale(0.00048828125,-0.00048828125)">
   <path d="M -4,459 L 1135,459 1135,606 -4,606 -4,459 Z"/>
  </g>
 </defs>
 <defs class="TextEmbeddedBitmaps"/>
 <g>
  <g id="id2" class="Master_Slide">
   <g id="bg-id2" class="Background"/>
   <g id="bo-id2" class="BackgroundObjects"/>
  </g>
 </g>
 <g class="SlideGroup">
  <g>
   <g id="id1" class="Slide" clip-path="url(#presentation_clip_path)">
    <g class="Page">
     <g class="Group">
      <g class="com.sun.star.drawing.CustomShape">
       <g id="id3">
        <rect class="BoundingBox" stroke="none" fill="none" x="798" y="-2" width="8440" height="6933"/>
        <path fill="rgb(238,238,238)" stroke="none" d="M 6457,3463 L 6455,3374 6447,3286 6435,3198 6418,3110 6397,3023 6370,2938 6339,2854 6304,2771 6264,2690 6220,2611 6171,2534 6118,2460 6062,2388 6001,2319 5937,2253 5869,2190 5798,2130 5724,2073 5646,2020 5566,1971 5484,1925 5399,1884 5311,1846 5222,1813 5131,1783 5039,1758 4945,1738 4851,1721 4755,1709 4660,1702 4563,1699 4467,1701 4371,1707 4276,1717 4181,1732 4087,1751 3994,1775 3903,1803 3813,1835 3725,1871 3639,1912 3556,1956 3475,2004 3397,2056 3321,2111 3249,2170 3180,2232 3115,2297 3053,2366 2995,2437 1499,1448 1613,1309 1734,1175 1863,1046 1998,924 2140,809 2287,700 2441,598 2600,504 2764,417 2932,338 3105,266 3281,203 3461,148 3643,102 3827,64 4014,34 4201,14 4390,2 4579,-1 4768,5 4956,19 5144,43 5329,75 5513,116 5695,165 5873,222 6048,288 6220,362 6387,444 6549,533 6706,630 6858,734 7004,845 7144,962 7277,1086 7403,1217 7522,1352 7633,1493 7737,1639 7832,1790 7920,1945 7998,2104 8068,2266 8129,2432 8180,2600 8223,2770 8256,2942 8280,3115 8294,3289 8299,3464 9236,3464 7378,5180 5521,3464 6457,3463 Z M 799,-1 L 799,-1 Z M 8299,6929 L 8299,6929 Z"/>
        <path fill="none" stroke="rgb(102,102,102)" d="M 6457,3463 L 6455,3374 6447,3286 6435,3198 6418,3110 6397,3023 6370,2938 6339,2854 6304,2771 6264,2690 6220,2611 6171,2534 6118,2460 6062,2388 6001,2319 5937,2253 5869,2190 5798,2130 5724,2073 5646,2020 5566,1971 5484,1925 5399,1884 5311,1846 5222,1813 5131,1783 5039,1758 4945,1738 4851,1721 4755,1709 4660,1702 4563,1699 4467,1701 4371,1707 4276,1717 4181,1732 4087,1751 3994,1775 3903,1803 3813,1835 3725,1871 3639,1912 3556,1956 3475,2004 3397,2056 3321,2111 3249,2170 3180,2232 3115,2297 3053,2366 2995,2437 1499,1448 1613,1309 1734,1175 1863,1046 1998,924 2140,809 2287,700 2441,598 2600,504 2764,417 2932,338 3105,266 3281,203 3461,148 3643,102 3827,64 4014,34 4201,14 4390,2 4579,-1 4768,5 4956,19 5144,43 5329,75 5513,116 5695,165 5873,222 6048,288 6220,362 6387,444 6549,533 6706,630 6858,734 7004,845 7144,962 7277,1086 7403,1217 7522,1352 7633,1493 7737,1639 7832,1790 7920,1945 7998,2104 8068,2266 8129,2432 8180,2600 8223,2770 8256,2942 8280,3115 8294,3289 8299,3464 9236,3464 7378,5180 5521,3464 6457,3463 Z"/>
        <path fill="none" stroke="rgb(102,102,102)" d="M 799,-1 L 799,-1 Z"/>
        <path fill="none" stroke="rgb(102,102,102)" d="M 8299,6929 L 8299,6929 Z"/>
       </g>
      </g>
      <g class="com.sun.star.drawing.CustomShape">
       <g id="id4">
        <rect class="BoundingBox" stroke="none" fill="none" x="62" y="768" width="8439" height="6935"/>
        <path fill="rgb(238,238,238)" stroke="none" d="M 2842,4236 L 2844,4325 2852,4414 2864,4503 2881,4591 2903,4679 2930,4765 2961,4850 2997,4933 3038,5014 3083,5093 3132,5171 3185,5245 3243,5317 3304,5387 3369,5453 3438,5516 3510,5576 3585,5633 3663,5686 3744,5735 3828,5780 3914,5821 4002,5859 4092,5892 4184,5920 4277,5945 4372,5965 4467,5980 4563,5991 4660,5998 4757,6000 4854,5997 4950,5990 5046,5979 5142,5963 5236,5942 5329,5917 5421,5888 5511,5854 5599,5817 5684,5775 5768,5729 5848,5679 5926,5626 6001,5569 6073,5509 6141,5445 6206,5378 6266,5309 7727,6343 7607,6479 7480,6610 7346,6735 7206,6854 7059,6965 6906,7070 6746,7168 6583,7258 6414,7340 6242,7414 6065,7480 5885,7537 5702,7586 5517,7627 5330,7658 5141,7681 4951,7695 4761,7700 4571,7696 4381,7683 4192,7662 4004,7631 3819,7592 3636,7544 3455,7487 3278,7422 3105,7349 2936,7268 2772,7179 2614,7083 2460,6979 2312,6868 2171,6750 2036,6626 1908,6496 1788,6359 1675,6217 1570,6070 1473,5919 1385,5763 1305,5603 1234,5440 1173,5273 1120,5104 1077,4933 1043,4760 1019,4585 1005,4410 1000,4234 63,4234 1921,2519 3778,4235 2842,4236 Z M 8499,7701 L 8499,7701 Z M 1001,769 L 1001,769 Z"/>
        <path fill="none" stroke="rgb(102,102,102)" d="M 2842,4236 L 2844,4325 2852,4414 2864,4503 2881,4591 2903,4679 2930,4765 2961,4850 2997,4933 3038,5014 3083,5093 3132,5171 3185,5245 3243,5317 3304,5387 3369,5453 3438,5516 3510,5576 3585,5633 3663,5686 3744,5735 3828,5780 3914,5821 4002,5859 4092,5892 4184,5920 4277,5945 4372,5965 4467,5980 4563,5991 4660,5998 4757,6000 4854,5997 4950,5990 5046,5979 5142,5963 5236,5942 5329,5917 5421,5888 5511,5854 5599,5817 5684,5775 5768,5729 5848,5679 5926,5626 6001,5569 6073,5509 6141,5445 6206,5378 6266,5309 7727,6343 7607,6479 7480,6610 7346,6735 7206,6854 7059,6965 6906,7070 6746,7168 6583,7258 6414,7340 6242,7414 6065,7480 5885,7537 5702,7586 5517,7627 5330,7658 5141,7681 4951,7695 4761,7700 4571,7696 4381,7683 4192,7662 4004,7631 3819,7592 3636,7544 3455,7487 3278,7422 3105,7349 2936,7268 2772,7179 2614,7083 2460,6979 2312,6868 2171,6750 2036,6626 1908,6496 1788,6359 1675,6217 1570,6070 1473,5919 1385,5763 1305,5603 1234,5440 1173,5273 1120,5104 1077,4933 1043,4760 1019,4585 1005,4410 1000,4234 63,4234 1921,2519 3778,4235 2842,4236 Z"/>
        <path fill="none" stroke="rgb(102,102,102)" d="M 8499,7701 L 8499,7701 Z"/>
        <path fill="none" stroke="rgb(102,102,102)" d="M 1001,769 L 1001,769 Z"/>
       </g>
      </g>
     </g>
    </g>
   </g>
  </g>
 </g>
</svg>