<?xml version="1.0" encoding="UTF-8"?>
<!DOCTYPE svg PUBLIC "-//W3C//DTD SVG 1.1//EN" "http://www.w3.org/Graphics/SVG/1.1/DTD/svg11.dtd">
<svg version="1.2" width="105mm" height="34mm" viewBox="0 0 10500 3400" preserveAspectRatio="xMidYMid" fill-rule="evenodd" stroke-width="28.222" stroke-linejoin="round" xmlns="http://www.w3.org/2000/svg" xmlns:ooo="http://xml.openoffice.org/svg/export" xmlns:xlink="http://www.w3.org/1999/xlink" xmlns:presentation="http://sun.com/xmlns/staroffice/presentation" xmlns:smil="http://www.w3.org/2001/SMIL20/" xmlns:anim="urn:oasis:names:tc:opendocument:xmlns:animation:1.0" xml:space="preserve">
 <defs class="ClipPathGroup">
  <clipPath id="presentation_clip_path" clipPathUnits="userSpaceOnUse">
   <rect x="0" y="0" width="10500" height="3400"/>
  </clipPath>
 </defs>
 <defs class="TextShapeIndex">
  <g ooo:slide="id1" ooo:id-list="id3 id4 id5 id6 id7 id8 id9 id10 id11"/>
 </defs>
 <defs class="EmbeddedBulletChars">
  <g id="bullet-char-template(57356)" transform="scale(0.00048828125,-0.00048828125)">
   <path d="M 580,1141 L 1163,571 580,0 -4,571 580,1141 Z"/>
  </g>
  <g id="bullet-char-template(57354)" transform="scale(0.00048828125,-0.00048828125)">
   <path d="M 8,1128 L 1137,1128 1137,0 8,0 8,1128 Z"/>
  </g>
  <g id="bullet-char-template(10146)" transform="scale(0.00048828125,-0.00048828125)">
   <path d="M 174,0 L 602,739 174,1481 1456,739 174,0 Z M 1358,739 L 309,1346 659,739 1358,739 Z"/>
  </g>
  <g id="bullet-char-template(10132)" transform="scale(0.00048828125,-0.00048828125)">
   <path d="M 2015,739 L 1276,0 717,0 1260,543 174,543 174,936 1260,936 717,1481 1274,1481 2015,739 Z"/>
  </g>
  <g id="bullet-char-template(10007)" transform="scale(0.00048828125,-0.00048828125)">
   <path d="M 0,-2 C -7,14 -16,27 -25,37 L 356,567 C 262,823 215,952 215,954 215,979 228,992 255,992 264,992 276,990 289,987 310,991 331,999 354,1012 L 381,999 492,748 772,1049 836,1024 860,1049 C 881,1039 901,1025 922,1006 886,937 835,863 770,784 769,783 710,716 594,584 L 774,223 C 774,196 753,168 711,139 L 727,119 C 717,90 699,76 672,76 641,76 570,178 457,381 L 164,-76 C 142,-110 111,-127 72,-127 30,-127 9,-110 8,-76 1,-67 -2,-52 -2,-32 -2,-23 -1,-13 0,-2 Z"/>
  </g>
  <g id="bullet-char-template(10004)" transform="scale(0.00048828125,-0.00048828125)">
   <path d="M 285,-33 C 182,-33 111,30 74,156 52,228 41,333 41,471 41,549 55,616 82,672 116,743 169,778 240,778 293,778 328,747 346,684 L 369,508 C 377,444 397,411 428,410 L 1163,1116 C 1174,1127 1196,1133 1229,1133 1271,1133 1292,1118 1292,1087 L 1292,965 C 1292,929 1282,901 1262,881 L 442,47 C 390,-6 338,-33 285,-33 Z"/>
  </g>
  <g id="bullet-char-template(9679)" transform="scale(0.00048828125,-0.00048828125)">
   <path d="M 813,0 C 632,0 489,54 383,161 276,268 223,411 223,592 223,773 276,916 383,1023 489,1130 632,1184 813,1184 992,1184 1136,1130 1245,1023 1353,916 1407,772 1407,592 1407,412 1353,268 1245,161 1136,54 992,0 813,0 Z"/>
  </g>
  <g id="bullet-char-template(8226)" transform="scale(0.00048828125,-0.00048828125)">
   <path d="M 346,457 C 273,457 209,483 155,535 101,586 74,649 74,723 74,796 101,859 155,911 209,963 273,989 346,989 419,989 480,963 531,910 582,859 608,796 608,723 608,648 583,586 532,535 482,483 420,457 346,457 Z"/>
  </g>
  <g id="bullet-char-template(8211)" transform="scale(0.00048828125,-0.00048828125)">
   <path d="M -4,459 L 1135,459 1135,606 -4,606 -4,459 Z"/>
  </g>
 </defs>
 <defs class="TextEmbeddedBitmaps"/>
 <g>
  <g id="id2" class="Master_Slide">
   <g id="bg-id2" class="Background"/>
   <g id="bo-id2" class="BackgroundObjects"/>
  </g>
 </g>
 <g class="SlideGroup">
  <g>
   <g id="id1" class="Slide" clip-path="url(#presentation_clip_path)">
    <g class="Page">
     <g class="Group">
      <g class="com.sun.star.drawing.CustomShape">
       <g id="id3">
        <rect class="BoundingBox" stroke="none" fill="none" x="298" y="99" width="1832" height="1704"/>
        <path fill="rgb(238,238,238)" stroke="none" d="M 1012,1568 L 299,1336 702,100 2128,565 1725,1801 1012,1568 Z"/>
        <path fill="none" stroke="rgb(0,0,0)" d="M 1012,1568 L 299,1336 702,100 2128,565 1725,1801 1012,1568 Z"/>
       </g>
      </g>
      <g class="com.sun.star.drawing.CustomShape">
       <g id="id4">
        <rect class="BoundingBox" stroke="none" fill="none" x="3743" y="1799" width="1504" height="1404"/>
        <path fill="rgb(238,238,238)" stroke="none" d="M 4494,1800 C 4919,1800 5244,2103 5244,2499 5244,2895 4919,3199 4494,3199 4069,3199 3744,2895 3744,2499 3744,2103 4069,1800 4494,1800 Z M 3744,1800 L 3744,1800 Z M 5245,3201 L 5245,3201 Z"/>
        <path fill="none" stroke="rgb(0,0,0)" d="M 4494,1800 C 4919,1800 5244,2103 5244,2499 5244,2895 4919,3199 4494,3199 4069,3199 3744,2895 3744,2499 3744,2103 4069,1800 4494,1800 Z"/>
        <path fill="none" stroke="rgb(0,0,0)" d="M 3744,1800 L 3744,1800 Z"/>
        <path fill="none" stroke="rgb(0,0,0)" d="M 5245,3201 L 5245,3201 Z"/>
       </g>
      </g>
      <g class="com.sun.star.drawing.ConnectorShape">
       <g id="id5">
        <rect class="BoundingBox" stroke="none" fill="none" x="3500" y="452" width="1741" height="1362"/>
        <path fill="none" stroke="rgb(0,0,0)" d="M 3501,453 L 4371,453 4371,1663 4810,1663"/>
        <path fill="rgb(0,0,0)" stroke="none" d="M 5240,1663 L 4790,1513 4790,1813 5240,1663 Z"/>
       </g>
      </g>
      <g class="com.sun.star.drawing.CustomShape">
       <g id="id6">
        <rect class="BoundingBox" stroke="none" fill="none" x="643" y="1915" width="1104" height="1104"/>
        <path fill="rgb(153,153,153)" stroke="none" d="M 1744,2466 L 1743,2494 1741,2521 1738,2548 1733,2576 1727,2602 1719,2629 1710,2655 1700,2681 1689,2706 1676,2730 1662,2754 1647,2777 1631,2800 1614,2821 1596,2842 1576,2861 1556,2880 1535,2898 1513,2914 1490,2930 1466,2944 1442,2957 1417,2969 1392,2979 1366,2989 1339,2996 1313,3003 1285,3008 1258,3012 1231,3015 1203,3016 1176,3016 1148,3014 1121,3011 1093,3007 1066,3001 1040,2994 1014,2986 988,2976 962,2965 938,2953 914,2939 890,2925 868,2909 846,2892 825,2874 805,2855 786,2835 768,2814 751,2792 735,2770 721,2746 707,2722 695,2698 684,2672 674,2646 666,2620 659,2594 653,2567 649,2539 646,2512 644,2484 644,2457 645,2429 648,2402 652,2375 657,2347 664,2321 671,2294 681,2268 691,2243 703,2218 716,2194 730,2170 746,2147 762,2125 780,2104 799,2084 818,2064 839,2046 860,2029 883,2013 906,1998 930,1984 954,1971 979,1960 1005,1950 1031,1941 1058,1933 1084,1927 1112,1922 1139,1919 1166,1917 1194,1916 1194,2466 1744,2466 Z M 644,1916 L 644,1916 Z M 1745,3017 L 1745,3017 Z"/>
        <path fill="none" stroke="rgb(51,51,51)" d="M 1744,2466 L 1743,2494 1741,2521 1738,2548 1733,2576 1727,2602 1719,2629 1710,2655 1700,2681 1689,2706 1676,2730 1662,2754 1647,2777 1631,2800 1614,2821 1596,2842 1576,2861 1556,2880 1535,2898 1513,2914 1490,2930 1466,2944 1442,2957 1417,2969 1392,2979 1366,2989 1339,2996 1313,3003 1285,3008 1258,3012 1231,3015 1203,3016 1176,3016 1148,3014 1121,3011 1093,3007 1066,3001 1040,2994 1014,2986 988,2976 962,2965 938,2953 914,2939 890,2925 868,2909 846,2892 825,2874 805,2855 786,2835 768,2814 751,2792 735,2770 721,2746 707,2722 695,2698 684,2672 674,2646 666,2620 659,2594 653,2567 649,2539 646,2512 644,2484 644,2457 645,2429 648,2402 652,2375 657,2347 664,2321 671,2294 681,2268 691,2243 703,2218 716,2194 730,2170 746,2147 762,2125 780,2104 799,2084 818,2064 839,2046 860,2029 883,2013 906,1998 930,1984 954,1971 979,1960 1005,1950 1031,1941 1058,1933 1084,1927 1112,1922 1139,1919 1166,1917 1194,1916 1194,2466 1744,2466 Z"/>
        <path fill="none" stroke="rgb(51,51,51)" d="M 644,1916 L 644,1916 Z"/>
        <path fill="none" stroke="rgb(51,51,51)" d="M 1745,3017 L 1745,3017 Z"/>
       </g>
      </g>
      <g class="com.sun.star.drawing.CustomShape">
       <g id="id7">
        <rect class="BoundingBox" stroke="none" fill="none" x="5352" y="292" width="1408" height="1110"/>
        <path fill="rgb(178,178,178)" stroke="none" d="M 5703,298 L 6753,293 6407,1395 5357,1400 5703,298 Z M 5353,299 L 5353,299 Z M 6758,1394 L 6758,1394 Z"/>
        <path fill="none" stroke="rgb(255,255,255)" d="M 5703,298 L 6753,293 6407,1395 5357,1400 5703,298 Z"/>
        <path fill="none" stroke="rgb(255,255,255)" d="M 5353,299 L 5353,299 Z"/>
        <path fill="none" stroke="rgb(255,255,255)" d="M 6758,1394 L 6758,1394 Z"/>
       </g>
      </g>
      <g class="com.sun.star.drawing.CustomShape">
       <g id="id8">
        <rect class="BoundingBox" stroke="none" fill="none" x="8204" y="-219" width="2003" height="3022"/>
        <path fill="rgb(128,128,128)" stroke="none" d="M 10059,1785 L 10085,1733 10109,1680 10130,1626 10149,1571 10164,1515 10178,1459 10189,1402 10197,1344 10202,1288 10205,1230 10204,1174 10202,1117 10196,1060 10188,1005 10176,950 10162,895 10146,842 10127,791 10106,740 10081,691 10055,644 10025,598 9995,553 9961,511 9925,471 9888,433 9848,397 9807,362 9764,331 9719,302 9673,276 9626,252 9577,232 9527,213 9475,198 9423,185 9371,175 9317,168 9264,164 9210,163 9155,164 9101,169 9047,176 8992,186 8939,199 8886,215 8833,234 8781,255 8731,279 8680,306 8632,335 8584,367 8538,401 8494,436 8450,476 8410,516 8371,559 8333,603 8298,649 8264,697 8234,746 8205,797 8669,1044 8683,1019 8699,994 8715,970 8733,947 8751,925 8771,904 8792,883 8813,864 8835,846 8858,829 8881,813 8906,799 8931,785 8957,773 8982,762 9009,753 9035,745 9063,738 9089,733 9116,730 9144,727 9171,727 9198,728 9225,730 9252,733 9278,737 9303,744 9329,753 9354,761 9378,772 9402,784 9426,797 9448,811 9469,827 9490,844 9510,862 9529,880 9546,901 9563,922 9579,944 9594,967 9607,991 9619,1016 9629,1040 9639,1067 9648,1093 9654,1121 9660,1147 9664,1176 9667,1204 9669,1233 9668,1261 9667,1289 9664,1317 9660,1346 9655,1375 9648,1403 9640,1430 9631,1458 9620,1485 9608,1512 9595,1538 10059,1785 Z M 8746,-218 L 8746,-218 Z M 9518,2801 L 9518,2801 Z"/>
        <path fill="none" stroke="rgb(51,51,51)" d="M 10059,1785 L 10085,1733 10109,1680 10130,1626 10149,1571 10164,1515 10178,1459 10189,1402 10197,1344 10202,1288 10205,1230 10204,1174 10202,1117 10196,1060 10188,1005 10176,950 10162,895 10146,842 10127,791 10106,740 10081,691 10055,644 10025,598 9995,553 9961,511 9925,471 9888,433 9848,397 9807,362 9764,331 9719,302 9673,276 9626,252 9577,232 9527,213 9475,198 9423,185 9371,175 9317,168 9264,164 9210,163 9155,164 9101,169 9047,176 8992,186 8939,199 8886,215 8833,234 8781,255 8731,279 8680,306 8632,335 8584,367 8538,401 8494,436 8450,476 8410,516 8371,559 8333,603 8298,649 8264,697 8234,746 8205,797 8669,1044 8683,1019 8699,994 8715,970 8733,947 8751,925 8771,904 8792,883 8813,864 8835,846 8858,829 8881,813 8906,799 8931,785 8957,773 8982,762 9009,753 9035,745 9063,738 9089,733 9116,730 9144,727 9171,727 9198,728 9225,730 9252,733 9278,737 9303,744 9329,753 9354,761 9378,772 9402,784 9426,797 9448,811 9469,827 9490,844 9510,862 9529,880 9546,901 9563,922 9579,944 9594,967 9607,991 9619,1016 9629,1040 9639,1067 9648,1093 9654,1121 9660,1147 9664,1176 9667,1204 9669,1233 9668,1261 9667,1289 9664,1317 9660,1346 9655,1375 9648,1403 9640,1430 9631,1458 9620,1485 9608,1512 9595,1538 10059,1785 Z"/>
        <path fill="none" stroke="rgb(51,51,51)" d="M 8746,-218 L 8746,-218 Z"/>
        <path fill="none" stroke="rgb(51,51,51)" d="M 9518,2801 L 9518,2801 Z"/>
       </g>
      </g>
      <g class="com.sun.star.drawing.CustomShape">
       <g id="id9">
        <rect class="BoundingBox" stroke="none" fill="none" x="5971" y="1583" width="1902" height="1552"/>
        <path fill="rgb(221,221,221)" stroke="none" d="M 6433,1617 L 7354,1584 7843,2325 7409,3100 6488,3133 6000,2391 6433,1617 Z M 5972,1634 L 5972,1634 Z M 7871,3083 L 7871,3083 Z"/>
        <path fill="none" stroke="rgb(102,102,102)" d="M 6433,1617 L 7354,1584 7843,2325 7409,3100 6488,3133 6000,2391 6433,1617 Z"/>
        <path fill="none" stroke="rgb(102,102,102)" d="M 5972,1634 L 5972,1634 Z"/>
        <path fill="none" stroke="rgb(102,102,102)" d="M 7871,3083 L 7871,3083 Z"/>
       </g>
      </g>
      <g class="com.sun.star.drawing.CustomShape">
       <g id="id10">
        <rect class="BoundingBox" stroke="none" fill="none" x="8812" y="1815" width="1491" height="1488"/>
        <path fill="rgb(221,221,221)" stroke="none" d="M 8813,1816 L 10301,2011 9759,3252 9015,3155 8813,1816 Z M 8813,1816 L 8813,1816 Z M 10132,3301 L 10132,3301 Z"/>
        <path fill="none" stroke="rgb(128,128,128)" d="M 8813,1816 L 10301,2011 9759,3252 9015,3155 8813,1816 Z"/>
        <path fill="none" stroke="rgb(128,128,128)" d="M 8813,1816 L 8813,1816 Z"/>
        <path fill="none" stroke="rgb(128,128,128)" d="M 10132,3301 L 10132,3301 Z"/>
       </g>
      </g>
      <g class="com.sun.star.drawing.CustomShape">
       <g id="id11">
        <rect class="BoundingBox" stroke="none" fill="none" x="2543" y="1072" width="1254" height="1140"/>
        <path fill="rgb(204,204,204)" stroke="none" d="M 2925,1121 L 3251,1073 3308,1453 3690,1397 3738,1723 3357,1780 3413,2162 3087,2210 3030,1829 2649,1885 2601,1559 2981,1502 2925,1121 2925,1121 Z M 2544,1178 L 2544,1178 Z M 3795,2105 L 3795,2105 Z"/>
        <path fill="none" stroke="rgb(0,0,0)" d="M 2925,1121 L 3251,1073 3308,1453 3690,1397 3738,1723 3357,1780 3413,2162 3087,2210 3030,1829 2649,1885 2601,1559 2981,1502 2925,1121 2925,1121 Z"/>
        <path fill="none" stroke="rgb(0,0,0)" d="M 2544,1178 L 2544,1178 Z"/>
        <path fill="none" stroke="rgb(0,0,0)" d="M 3795,2105 L 3795,2105 Z"/>
       </g>
      </g>
     </g>
    </g>
   </g>
  </g>
 </g>
</svg>