<?xml version="1.0" encoding="UTF-8"?>
<!DOCTYPE svg PUBLIC "-//W3C//DTD SVG 1.1//EN" "http://www.w3.org/Graphics/SVG/1.1/DTD/svg11.dtd">
<svg version="1.2" width="162.2mm" height="277mm" viewBox="0 0 16220 27700" preserveAspectRatio="xMidYMid" fill-rule="evenodd" stroke-width="28.222" stroke-linejoin="round" xmlns="http://www.w3.org/2000/svg" xmlns:ooo="http://xml.openoffice.org/svg/export" xmlns:xlink="http://www.w3.org/1999/xlink" xmlns:presentation="http://sun.com/xmlns/staroffice/presentation" xmlns:smil="http://www.w3.org/2001/SMIL20/" xmlns:anim="urn:oasis:names:tc:opendocument:xmlns:animation:1.0" xml:space="preserve">
 <defs class="ClipPathGroup">
  <clipPath id="presentation_clip_path" clipPathUnits="userSpaceOnUse">
   <rect x="0" y="0" width="16220" height="27700"/>
  </clipPath>
 </defs>
 <defs class="TextShapeIndex">
  <g ooo:slide="id1" ooo:id-list="id3 id4 id5 id6 id7 id8 id9 id10"/>
 </defs>
 <defs class="EmbeddedBulletChars">
  <g id="bullet-char-template(57356)" transform="scale(0.00048828125,-0.00048828125)">
   <path d="M 580,1141 L 1163,571 580,0 -4,571 580,1141 Z"/>
  </g>
  <g id="bullet-char-template(57354)" transform="scale(0.00048828125,-0.00048828125)">
   <path d="M 8,1128 L 1137,1128 1137,0 8,0 8,1128 Z"/>
  </g>
  <g id="bullet-char-template(10146)" transform="scale(0.00048828125,-0.00048828125)">
   <path d="M 174,0 L 602,739 174,1481 1456,739 174,0 Z M 1358,739 L 309,1346 659,739 1358,739 Z"/>
  </g>
  <g id="bullet-char-template(10132)" transform="scale(0.00048828125,-0.00048828125)">
   <path d="M 2015,739 L 1276,0 717,0 1260,543 174,543 174,936 1260,936 717,1481 1274,1481 2015,739 Z"/>
  </g>
  <g id="bullet-char-template(10007)" transform="scale(0.00048828125,-0.00048828125)">
   <path d="M 0,-2 C -7,14 -16,27 -25,37 L 356,567 C 262,823 215,952 215,954 215,979 228,992 255,992 264,992 276,990 289,987 310,991 331,999 354,1012 L 381,999 492,748 772,1049 836,1024 860,1049 C 881,1039 901,1025 922,1006 886,937 835,863 770,784 769,783 710,716 594,584 L 774,223 C 774,196 753,168 711,139 L 727,119 C 717,90 699,76 672,76 641,76 570,178 457,381 L 164,-76 C 142,-110 111,-127 72,-127 30,-127 9,-110 8,-76 1,-67 -2,-52 -2,-32 -2,-23 -1,-13 0,-2 Z"/>
  </g>
  <g id="bullet-char-template(10004)" transform="scale(0.00048828125,-0.00048828125)">
   <path d="M 285,-33 C 182,-33 111,30 74,156 52,228 41,333 41,471 41,549 55,616 82,672 116,743 169,778 240,778 293,778 328,747 346,684 L 369,508 C 377,444 397,411 428,410 L 1163,1116 C 1174,1127 1196,1133 1229,1133 1271,1133 1292,1118 1292,1087 L 1292,965 C 1292,929 1282,901 1262,881 L 442,47 C 390,-6 338,-33 285,-33 Z"/>
  </g>
  <g id="bullet-char-template(9679)" transform="scale(0.00048828125,-0.00048828125)">
   <path d="M 813,0 C 632,0 489,54 383,161 276,268 223,411 223,592 223,773 276,916 383,1023 489,1130 632,1184 813,1184 992,1184 1136,1130 1245,1023 1353,916 1407,772 1407,592 1407,412 1353,268 1245,161 1136,54 992,0 813,0 Z"/>
  </g>
  <g id="bullet-char-template(8226)" transform="scale(0.00048828125,-0.00048828125)">
   <path d="M 346,457 C 273,457 209,483 155,535 101,586 74,649 74,723 74,796 101,859 155,911 209,963 273,989 346,989 419,989 480,963 531,910 582,859 608,796 608,723 608,648 583,586 532,535 482,483 420,457 346,457 Z"/>
  </g>
  <g id="bullet-char-template(8211)" transform="scale(0.00048828125,-0.00048828125)">
   <path d="M -4,459 L 1135,459 1135,606 -4,606 -4,459 Z"/>
  </g>
 </defs>
 <defs class="TextEmbeddedBitmaps"/>
 <g>
  <g id="id2" class="Master_Slide">
   <g id="bg-id2" class="Background"/>
   <g id="bo-id2" class="BackgroundObjects"/>
  </g>
 </g>
 <g class="SlideGroup">
  <g>
   <g id="id1" class="Slide" clip-path="url(#presentation_clip_path)">
    <g class="Page">
     <g class="Group">
      <g class="com.sun.star.drawing.CustomShape">
       <g id="id3">
        <rect class="BoundingBox" stroke="none" fill="none" x="0" y="1990" width="16222" height="25712"/>
        <path fill="rgb(0,0,0)" stroke="none" d="M 2703,1990 C 1351,1990 0,3341 0,4693 L 0,24997 C 0,26349 1351,27701 2703,27701 L 13517,27701 C 14869,27701 16221,26349 16221,24997 L 16221,4693 C 16221,3341 14869,1990 13517,1990 L 2703,1990 Z M 0,1990 L 0,1990 Z M 16221,27701 L 16221,27701 Z"/>
       </g>
      </g>
      <g class="com.sun.star.drawing.CustomShape">
       <g id="id4">
        <rect class="BoundingBox" stroke="none" fill="none" x="1072" y="2897" width="13967" height="23886"/>
        <path fill="rgb(255,255,255)" stroke="none" d="M 3422,2900 C 2260,2899 1097,4058 1096,5220 L 1072,24440 C 1071,25601 2230,26765 3392,26766 L 12687,26778 C 13849,26779 15013,25619 15014,24458 L 15038,5238 C 15039,4076 13879,2913 12717,2912 L 3422,2900 Z M 1099,2897 L 1099,2897 Z M 15011,26782 L 15011,26782 Z"/>
       </g>
      </g>
      <g class="com.sun.star.drawing.CustomShape">
       <g id="id5">
        <rect class="BoundingBox" stroke="none" fill="none" x="0" y="4590" width="16221" height="2604"/>
        <path fill="rgb(255,255,255)" stroke="none" d="M 8110,7193 L 0,7193 0,4590 16220,4590 16220,7193 8110,7193 Z"/>
       </g>
      </g>
      <g class="com.sun.star.drawing.CustomShape">
       <g id="id6">
        <rect class="BoundingBox" stroke="none" fill="none" x="2906" y="8569" width="1839" height="14847"/>
        <path fill="rgb(0,0,0)" stroke="none" d="M 3212,8570 C 3059,8570 2906,8723 2906,8876 L 2906,23108 C 2906,23261 3059,23415 3212,23415 L 4436,23415 C 4589,23415 4743,23261 4743,23108 L 4743,8876 C 4743,8723 4589,8570 4436,8570 L 3212,8570 Z M 2906,8570 L 2906,8570 Z M 4743,23415 L 4743,23415 Z"/>
       </g>
      </g>
      <g class="com.sun.star.drawing.CustomShape">
       <g id="id7">
        <rect class="BoundingBox" stroke="none" fill="none" x="7192" y="8569" width="1839" height="14847"/>
        <path fill="rgb(0,0,0)" stroke="none" d="M 7498,8570 C 7345,8570 7192,8723 7192,8876 L 7192,23108 C 7192,23261 7345,23415 7498,23415 L 8722,23415 C 8875,23415 9029,23261 9029,23108 L 9029,8876 C 9029,8723 8875,8570 8722,8570 L 7498,8570 Z M 7192,8570 L 7192,8570 Z M 9029,23415 L 9029,23415 Z"/>
       </g>
      </g>
      <g class="com.sun.star.drawing.CustomShape">
       <g id="id8">
        <rect class="BoundingBox" stroke="none" fill="none" x="11628" y="8569" width="1840" height="14847"/>
        <path fill="rgb(0,0,0)" stroke="none" d="M 11934,8570 C 11781,8570 11628,8723 11628,8876 L 11628,23108 C 11628,23261 11781,23415 11934,23415 L 13159,23415 C 13312,23415 13466,23261 13466,23108 L 13466,8876 C 13466,8723 13312,8570 13159,8570 L 11934,8570 Z M 11628,8570 L 11628,8570 Z M 13466,23415 L 13466,23415 Z"/>
       </g>
      </g>
      <g class="com.sun.star.drawing.CustomShape">
       <g id="id9">
        <rect class="BoundingBox" stroke="none" fill="none" x="0" y="4438" width="16222" height="1380"/>
        <path fill="rgb(0,0,0)" stroke="none" d="M 229,4438 C 114,4438 0,4552 0,4667 L 0,5587 C 0,5702 114,5817 229,5817 L 15991,5817 C 16106,5817 16221,5702 16221,5587 L 16221,4667 C 16221,4552 16106,4438 15991,4438 L 229,4438 Z M 0,4438 L 0,4438 Z M 16221,5817 L 16221,5817 Z"/>
       </g>
      </g>
      <g class="com.sun.star.drawing.CustomShape">
       <g id="id10">
        <rect class="BoundingBox" stroke="none" fill="none" x="5967" y="0" width="4745" height="4288"/>
        <path fill="rgb(0,0,0)" stroke="none" d="M 10711,2143 L 10708,2034 10699,1926 10684,1818 10662,1712 10635,1606 10602,1501 10563,1399 10519,1298 10469,1199 10413,1103 10352,1009 10286,919 10215,831 10139,747 10058,667 9973,590 9884,517 9791,448 9694,384 9594,324 9490,269 9384,219 9274,174 9163,133 9049,98 8934,68 8816,44 8698,25 8579,11 8459,3 8339,0 8219,3 8099,11 7980,25 7862,44 7744,68 7629,98 7515,133 7404,174 7294,219 7188,269 7084,324 6984,384 6887,448 6794,517 6705,590 6620,667 6539,747 6463,831 6392,919 6326,1009 6265,1103 6209,1199 6159,1298 6115,1399 6076,1501 6043,1606 6016,1712 5994,1818 5979,1926 5970,2034 5967,2143 7153,2143 7155,2089 7159,2035 7167,1981 7177,1927 7191,1874 7207,1822 7227,1771 7249,1720 7274,1671 7302,1623 7333,1576 7366,1531 7401,1487 7439,1445 7479,1404 7522,1366 7566,1330 7613,1295 7661,1263 7712,1233 7763,1206 7817,1181 7871,1158 7927,1138 7984,1120 8042,1105 8100,1093 8159,1083 8219,1077 8279,1072 8339,1071 8399,1072 8459,1077 8519,1083 8578,1093 8636,1105 8694,1120 8751,1138 8807,1158 8861,1181 8915,1206 8966,1233 9017,1263 9065,1295 9112,1330 9156,1366 9199,1404 9239,1445 9277,1487 9312,1531 9345,1576 9376,1623 9404,1671 9429,1720 9451,1771 9471,1822 9487,1874 9501,1927 9511,1981 9519,2035 9523,2089 9525,2143 10711,2143 Z M 5967,0 L 5967,0 Z M 10711,4287 L 10711,4287 Z"/>
       </g>
      </g>
     </g>
    </g>
   </g>
  </g>
 </g>
</svg>