<?xml version="1.0" encoding="UTF-8" standalone="no"?>
<svg
   xmlns:dc="http://purl.org/dc/elements/1.1/"
   xmlns:cc="http://creativecommons.org/ns#"
   xmlns:rdf="http://www.w3.org/1999/02/22-rdf-syntax-ns#"
   xmlns:svg="http://www.w3.org/2000/svg"
   xmlns="http://www.w3.org/2000/svg"
   width="90mm"
   height="30mm"
   viewBox="0 0 90 30"
   version="1.1"
   id="svg8">
  <defs
     id="defs2">
    <rect
       x="48.444218"
       y="100.62781"
       width="87.07589"
       height="38.418266"
       id="rect2916" />
    <rect
       x="48.444218"
       y="100.62781"
       width="87.07589"
       height="38.418266"
       id="rect2916-1" />
    <rect
       x="48.444218"
       y="100.62781"
       width="87.07589"
       height="38.418266"
       id="rect2960" />
    <filter
       style="color-interpolation-filters:sRGB"
       id="filter3763"
       x="-0.12840936"
       width="1.2568187"
       y="-0.18905263"
       height="1.3781053">
      <feGaussianBlur
         stdDeviation="1.0886348"
         id="feGaussianBlur3765" />
    </filter>
  </defs>
  <metadata
     id="metadata5">
    <rdf:RDF>
      <cc:Work
         rdf:about="">
        <dc:format>image/svg+xml</dc:format>
        <dc:type
           rdf:resource="http://purl.org/dc/dcmitype/StillImage" />
        <dc:title></dc:title>
      </cc:Work>
    </rdf:RDF>
  </metadata>
  <g
     id="layer2"
     style="display:inline;opacity:1;filter:url(#filter3763)">
    <path
       id="path1246"
       style="display:inline;mix-blend-mode:normal;fill:#a792d2;fill-opacity:1;stroke:#939fd3;stroke-width:0.0883394;stroke-opacity:1"
       d="m 19.290209,6.6259029 c 3.589258,5.8229551 5.874718,4.6128371 -6.334187,10.5240051 -9.4285408,4.565001 -8.9294778,2.554259 -11.1543698,-2.609031 4.998819,-2.698613 5.149945,-1.312992 2.018674,-8.3367331 2.652289,-1.321876 5.593489,1.650867 8.0718158,3.128223 1.028696,0.613216 1.449686,-0.293507 7.398067,-2.706464 z" />
  </g>
  <g
     id="layer3"
     style="display:inline">
    <g
       id="g2894"
       style="display:inline;fill:#555555;fill-opacity:1"
       transform="matrix(0.33388157,0,0,0.33388157,-7.7088618,-8.6469636)">
      <path
         style="display:inline;fill:#555555;fill-opacity:1;stroke:none;stroke-width:0.264583px;stroke-linecap:butt;stroke-linejoin:miter;stroke-opacity:1"
         d="m 52.029883,79.061043 c 0.51765,-0.28242 0.65386,-0.39965 0.90845,-0.62972 0.4809,-0.50288 0.50481,-0.99329 0.38401,-1.59049 -2.18189,-4.36987 -4.65081,-9.06388 -7.01431,-13.59327 -0.50284,-0.79168 -1.69361,-0.77323 -2.92534,-0.50946 l -9.44519,4.13914 -3.37603,2.07417 c -0.40795,0.27262 -0.73817,0.93139 -0.64343,1.62662 l 6.34504,13.21447 c 0.50279,0.93441 0.87453,1.09527 1.35161,1.25302 0.90576,0.2623 1.55751,0.138 2.49034,-0.10057 z"
         id="path92-1" />
      <path
         style="display:inline;fill:#555555;fill-opacity:1;stroke:none;stroke-width:0.264583px;stroke-linecap:butt;stroke-linejoin:miter;stroke-opacity:1"
         d="m 70.820136,70.607061 c 0.51765,-0.28242 0.65386,-0.39965 0.90845,-0.62972 0.4809,-0.50288 0.50481,-0.99329 0.38401,-1.59049 -2.18189,-4.36987 -4.65081,-9.063891 -7.01431,-13.593281 -0.50284,-0.79168 -1.69361,-0.77323 -2.92534,-0.50946 l -9.44519,4.13914 -3.37603,2.07417 c -0.40795,0.27262 -0.73817,0.931391 -0.64343,1.626631 l 6.34504,13.21447 c 0.50279,0.93441 0.87453,1.09527 1.35161,1.25302 0.90576,0.2623 1.55751,0.138 2.49034,-0.10057 z"
         id="path92-1-2" />
      <path
         style="display:inline;fill:#555555;fill-opacity:1;stroke:none;stroke-width:0.264583px;stroke-linecap:butt;stroke-linejoin:miter;stroke-opacity:1"
         d="m 89.511402,62.066318 c 0.51765,-0.28242 0.65386,-0.39965 0.90845,-0.62972 0.480899,-0.50288 0.504809,-0.99329 0.38401,-1.59049 -2.18189,-4.369867 -4.65081,-9.063888 -7.01431,-13.593278 -0.50284,-0.79168 -1.69361,-0.77323 -2.92534,-0.50946 l -9.44519,4.13914 -3.37603,2.07417 c -0.40795,0.27262 -0.73817,0.931387 -0.64343,1.626627 l 6.34504,13.214471 c 0.50279,0.93441 0.87453,1.09527 1.35161,1.25302 0.90576,0.2623 1.55751,0.138 2.49034,-0.10057 z"
         id="path92-1-2-0" />
      <path
         style="display:inline;fill:#555555;fill-opacity:1;stroke:none;stroke-width:0.264583px;stroke-linecap:butt;stroke-linejoin:miter;stroke-opacity:1"
         d="m 57.508072,54.031759 c 0.51765,-0.28242 0.65386,-0.39965 0.90845,-0.62972 0.4809,-0.50288 0.50481,-0.99329 0.38401,-1.59049 -2.18189,-4.369869 -4.65081,-9.063886 -7.01431,-13.593276 -0.50284,-0.79168 -1.69361,-0.77323 -2.92534,-0.50946 l -9.44519,4.13914 -3.37603,2.07417 c -0.40795,0.27262 -0.73817,0.931387 -0.64343,1.626627 l 6.34504,13.214469 c 0.50279,0.93441 0.87453,1.09527 1.35161,1.25302 0.90576,0.2623 1.55751,0.138 2.49034,-0.10057 z"
         id="path92-1-2-6" />
    </g>
  </g>
  <g
     id="layer1"
     style="display:inline">
    <g
       id="g1841"
       transform="matrix(0.33388157,0,0,0.33388157,-7.7088598,-8.6469656)"
       style="stroke:#ffffff;stroke-opacity:0.31095">
      <path
         style="fill:none;stroke:#ffffff;stroke-width:0.264583px;stroke-linecap:butt;stroke-linejoin:miter;stroke-opacity:0.31095"
         d="m 55.376967,50.20856 c -4.912238,2.70306 -5.911484,2.80241 -8.108719,3.6989 -1.676179,0.56899 -2.930216,0.23475 -3.331466,-0.29324 L 39.193846,43.58331 c -0.228812,-0.57845 -0.28034,-1.1569 0.221845,-1.73535 l 9.445184,-4.13914 c 1.183267,-0.15394 1.898098,0.0742 2.252459,0.59629 l 4.533863,9.77939 c 0.102497,0.28287 0.266202,1.69336 -0.27023,2.12406 z"
         id="path90" />
      <path
         style="fill:none;stroke:#ffffff;stroke-width:0.264583px;stroke-linecap:butt;stroke-linejoin:miter;stroke-opacity:0.31095"
         d="m 57.508072,54.03176 c 0.517645,-0.28242 0.653861,-0.39965 0.908442,-0.62972 0.480904,-0.50288 0.504819,-0.99329 0.384013,-1.59049 -2.181891,-4.36987 -4.650812,-9.06388 -7.014313,-13.59327 -0.502833,-0.79168 -1.69361,-0.77323 -2.925339,-0.50946 l -9.445184,4.13914 -3.376028,2.07417 c -0.407952,0.27262 -0.73817,0.93139 -0.643431,1.62662 l 6.345033,13.21447 c 0.50279,0.93441 0.874529,1.09527 1.351609,1.25302 0.90576,0.2623 1.557517,0.138 2.490346,-0.10057 z"
         id="path92" />
      <text
         xml:space="preserve"
         style="font-style:normal;font-weight:normal;font-size:4.37474px;line-height:1.25;font-family:sans-serif;fill:#e8e8e8;fill-opacity:1;stroke:#ffffff;stroke-width:0.109369;stroke-opacity:0.31095"
         x="19.478439"
         y="61.109406"
         id="text874"
         transform="matrix(0.94239003,-0.42155607,0.43588419,0.8661492,0,0)"><tspan
           id="tspan872"
           x="19.478439"
           y="61.109406"
           style="fill:#e8e8e8;fill-opacity:1;stroke:#ffffff;stroke-width:0.109369;stroke-opacity:0.31095">w</tspan></text>
      <path
         style="fill:none;stroke:#ffffff;stroke-width:0.264583px;stroke-linecap:butt;stroke-linejoin:miter;stroke-opacity:0.31095"
         d="m 68.689038,66.783853 c -4.912238,2.70306 -5.911484,2.80241 -8.108719,3.6989 -1.676179,0.56899 -2.930216,0.23475 -3.331466,-0.29324 L 52.505917,60.1586 c -0.228812,-0.57845 -0.28034,-1.1569 0.221845,-1.73535 l 9.445184,-4.13914 c 1.183267,-0.15394 1.898098,0.0742 2.252459,0.59629 l 4.533863,9.779393 c 0.102497,0.28287 0.266202,1.69336 -0.27023,2.12406 z"
         id="path90-6" />
      <path
         style="fill:none;stroke:#ffffff;stroke-width:0.264583px;stroke-linecap:butt;stroke-linejoin:miter;stroke-opacity:0.31095"
         d="m 70.820143,70.607053 c 0.517645,-0.28242 0.653861,-0.39965 0.908442,-0.62972 0.480904,-0.50288 0.504819,-0.99329 0.384013,-1.59049 -2.181891,-4.36987 -4.650812,-9.063883 -7.014313,-13.593273 -0.502833,-0.79168 -1.69361,-0.77323 -2.925339,-0.50946 l -9.445184,4.13914 -3.376028,2.07417 c -0.407952,0.27262 -0.73817,0.93139 -0.643431,1.62662 l 6.345033,13.214473 c 0.50279,0.93441 0.874529,1.09527 1.351609,1.25302 0.90576,0.2623 1.557517,0.138 2.490346,-0.10057 z"
         id="path92-7" />
      <path
         style="fill:none;stroke:#ffffff;stroke-width:0.264583px;stroke-linecap:butt;stroke-linejoin:miter;stroke-opacity:0.31095"
         d="m 49.89878,75.237843 c -4.912238,2.70306 -5.911484,2.80241 -8.108719,3.6989 -1.676179,0.56899 -2.930216,0.23475 -3.331466,-0.29324 l -4.742936,-10.03091 c -0.228812,-0.57845 -0.28034,-1.1569 0.221845,-1.73535 L 43.382688,62.7381 c 1.183267,-0.15394 1.898098,0.0742 2.252459,0.59629 l 4.533863,9.779393 c 0.102497,0.28287 0.266202,1.69336 -0.27023,2.12406 z"
         id="path90-62" />
      <path
         style="fill:none;stroke:#ffffff;stroke-width:0.264583px;stroke-linecap:butt;stroke-linejoin:miter;stroke-opacity:0.31095"
         d="m 52.029885,79.061043 c 0.517645,-0.28242 0.653861,-0.39965 0.908442,-0.62972 0.480904,-0.50288 0.504819,-0.99329 0.384013,-1.59049 -2.181891,-4.36987 -4.650812,-9.06388 -7.014313,-13.593273 -0.502833,-0.79168 -1.69361,-0.77323 -2.925339,-0.50946 l -9.445184,4.139143 -3.376028,2.07417 c -0.407952,0.27262 -0.73817,0.93139 -0.643431,1.62662 l 6.345033,13.21447 c 0.50279,0.93441 0.874529,1.09527 1.351609,1.25302 0.90576,0.2623 1.557517,0.138 2.490346,-0.10057 z"
         id="path92-9" />
      <path
         style="fill:none;stroke:#ffffff;stroke-width:0.264583px;stroke-linecap:butt;stroke-linejoin:miter;stroke-opacity:0.31095"
         d="m 87.380298,58.24311 c -4.912238,2.70306 -5.911484,2.80241 -8.108719,3.6989 C 77.5954,62.511 76.341363,62.17676 75.940113,61.64877 L 71.197177,51.61786 c -0.228812,-0.57845 -0.28034,-1.1569 0.221845,-1.73535 l 9.445184,-4.13914 c 1.183267,-0.15394 1.898098,0.0742 2.252459,0.59629 l 4.533863,9.77939 c 0.102497,0.28287 0.266202,1.69336 -0.27023,2.12406 z"
         id="path90-62-6" />
      <path
         style="fill:none;stroke:#ffffff;stroke-width:0.264583px;stroke-linecap:butt;stroke-linejoin:miter;stroke-opacity:0.31095"
         d="m 89.511403,62.06631 c 0.517645,-0.28242 0.653861,-0.39965 0.908442,-0.62972 0.480904,-0.50288 0.504819,-0.99329 0.384013,-1.59049 -2.181891,-4.36987 -4.650812,-9.06388 -7.014313,-13.59327 -0.502833,-0.79168 -1.69361,-0.77323 -2.925339,-0.50946 l -9.445184,4.13914 -3.376028,2.07417 c -0.407952,0.27262 -0.73817,0.93139 -0.643431,1.62662 l 6.345033,13.214471 c 0.50279,0.93441 0.874529,1.09527 1.351609,1.25302 0.90576,0.2623 1.557517,0.138 2.490346,-0.10057 z"
         id="path92-9-0" />
      <text
         xml:space="preserve"
         style="font-style:normal;font-weight:normal;font-size:4.37474px;line-height:1.25;font-family:sans-serif;fill:#6478d2;fill-opacity:1;stroke:#ffffff;stroke-width:0.109369;stroke-opacity:0.31095"
         x="4.1173592"
         y="82.785767"
         id="text874-1"
         transform="matrix(0.94239003,-0.42155607,0.43588419,0.8661492,0,0)"><tspan
           id="tspan872-9"
           x="4.1173592"
           y="82.785767"
           style="fill:#6478d2;fill-opacity:1;stroke:#ffffff;stroke-width:0.109369;stroke-opacity:0.31095">A</tspan></text>
      <text
         xml:space="preserve"
         style="font-style:normal;font-weight:normal;font-size:4.37474px;line-height:1.25;font-family:sans-serif;fill:#ca8076;fill-opacity:1;stroke:#ffffff;stroke-width:0.109369;stroke-opacity:0.31095"
         x="24.161861"
         y="82.737823"
         id="text874-8"
         transform="matrix(0.94239003,-0.42155607,0.43588419,0.8661492,0,0)"><tspan
           id="tspan872-4"
           x="24.161861"
           y="82.737823"
           style="fill:#ca8076;fill-opacity:1;stroke:#ffffff;stroke-width:0.109369;stroke-opacity:0.31095">S</tspan></text>
      <text
         xml:space="preserve"
         style="font-style:normal;font-weight:normal;font-size:4.37474px;line-height:1.25;font-family:sans-serif;display:inline;fill:#74c984;fill-opacity:1;stroke:#ffffff;stroke-width:0.109369;stroke-opacity:0.31095"
         x="44.074055"
         y="82.568542"
         id="text874-8-5"
         transform="matrix(0.94239003,-0.42155607,0.43588419,0.8661492,0,0)"><tspan
           id="tspan872-4-0"
           x="44.074055"
           y="82.568542"
           style="fill:#74c984;fill-opacity:1;stroke:#ffffff;stroke-width:0.109369;stroke-opacity:0.31095">D</tspan></text>
    </g>
  </g>
  <g
     id="layer4"
     style="display:inline">
    <text
       xml:space="preserve"
       id="text2914"
       style="font-style:normal;font-weight:normal;font-size:25.4px;line-height:1.25;font-family:sans-serif;white-space:pre;shape-inside:url(#rect2916);fill:#2562bd;fill-opacity:1;stroke:none;"
       transform="matrix(1.4146566,0,0,1.4146566,-55.696832,-150.04595)"><tspan
         x="48.443359"
         y="123.1"><tspan
           style="font-style:normal;font-variant:normal;font-weight:bold;font-stretch:normal;font-size:14.1111px;font-family:sans-serif;-inkscape-font-specification:'sans-serif Bold';fill:#2562bd;fill-opacity:1">Tr-Soft</tspan></tspan></text>
  </g>
</svg>
